<?xml version="1.0" standalone="no"?>
<!DOCTYPE svg PUBLIC "-//W3C//DTD SVG 20010904//EN"
 "http://www.w3.org/TR/2001/REC-SVG-20010904/DTD/svg10.dtd">
<svg version="1.0" xmlns="http://www.w3.org/2000/svg"
 x="0px" y="0px" viewBox="0 0 1760 2345" enable-background="new 0 0 1760 2345"
 xml:space="preserve">
<g transform="translate(0,2345) scale(0.100000,-0.100000)" stroke="none">
<path d="M765 23005 c-60 -16 -119 -74 -134 -133 -8 -28 -10 -2180 -8 -7458 3
-6931 4 -7427 20 -7535 99 -673 371 -1225 831 -1685 432 -432 970 -711 1566
-813 352 -60 752 -52 1110 24 411 86 859 299 1200 571 109 87 367 345 454 454
157 197 326 484 419 710 82 199 149 437 181 645 8 55 18 116 22 135 4 19 10
2490 13 5490 l6 5455 24 85 c57 202 145 353 288 491 139 134 284 215 469 261
127 32 341 32 468 0 230 -58 435 -193 578 -382 68 -89 143 -245 176 -365 l27
-100 5 -5640 6 -5640 22 -115 c94 -489 298 -889 626 -1228 361 -372 800 -600
1333 -689 153 -25 533 -25 688 0 534 89 960 308 1327 683 354 361 567 800 644
1324 14 96 18 244 24 915 6 685 10 811 23 875 61 277 164 507 321 718 257 345
629 580 1061 672 144 31 420 38 573 16 673 -99 1219 -560 1426 -1204 77 -239
79 -263 85 -1037 7 -766 3 -725 73 -779 104 -77 252 -47 308 65 21 40 21 47
17 767 -3 690 -5 733 -25 837 -41 214 -100 391 -194 580 -466 939 -1535 1403
-2545 1105 -402 -119 -783 -373 -1051 -702 -192 -236 -343 -535 -417 -827 -58
-232 -58 -221 -65 -1101 -8 -879 -6 -851 -65 -1084 -169 -664 -720 -1211
-1390 -1380 -186 -46 -309 -59 -530 -53 -163 4 -223 10 -323 31 -372 79 -688
246 -955 505 -348 337 -547 761 -587 1246 -7 86 -10 1914 -10 5635 0 6137 7
5579 -70 5811 -69 207 -170 375 -323 536 -207 216 -464 356 -759 415 -144 28
-375 30 -518 4 -275 -50 -529 -180 -732 -375 -206 -197 -329 -408 -406 -696
l-27 -100 -5 -5445 c-5 -5125 -7 -5452 -23 -5560 -92 -602 -329 -1076 -739
-1476 -401 -392 -884 -626 -1448 -700 -175 -23 -535 -15 -705 15 -527 94 -982
328 -1351 696 -150 149 -225 240 -337 410 -210 320 -347 696 -392 1081 -13
114 -15 985 -15 7499 0 5165 -3 7381 -11 7408 -28 103 -142 163 -254 132z"/>
<path d="M10530 9994 c-531 -71 -1041 -370 -1363 -800 l-67 -89 0 -70 c0 -130
45 -256 123 -349 l33 -39 49 89 c250 464 661 773 1178 886 89 19 132 22 327
22 197 0 238 -3 330 -22 510 -111 938 -431 1171 -876 l52 -100 39 44 c76 85
118 208 118 344 l0 73 -62 84 c-78 104 -248 281 -348 362 -300 243 -670 398
-1060 447 -116 14 -393 11 -520 -6z"/>
<path d="M13456 6754 c-120 -157 -140 -369 -51 -544 61 -120 290 -339 503
-480 261 -174 538 -284 842 -335 134 -23 432 -31 571 -15 474 52 914 254 1242
569 l77 74 0 -2209 -1 -2209 -33 -87 c-97 -255 -254 -413 -561 -564 -221 -108
-443 -163 -696 -171 -189 -7 -319 7 -494 52 -308 79 -570 230 -800 460 -136
136 -230 263 -307 413 -34 65 -58 101 -67 100 -21 -4 -96 -118 -120 -184 -12
-31 -24 -91 -28 -133 -12 -165 36 -282 177 -434 458 -488 1114 -739 1775 -677
391 37 767 180 1080 412 243 180 387 364 454 582 l21 68 0 2566 0 2565 -44 43
c-89 85 -227 105 -341 49 -44 -21 -63 -38 -92 -83 -173 -272 -426 -497 -718
-637 -485 -233 -1039 -229 -1516 10 -325 163 -583 411 -759 732 -34 62 -66
113 -71 113 -4 0 -24 -21 -43 -46z"/>
</g>
</svg>
