<?xml version="1.0" standalone="no"?>
<!DOCTYPE svg PUBLIC "-//W3C//DTD SVG 20010904//EN"
 "http://www.w3.org/TR/2001/REC-SVG-20010904/DTD/svg10.dtd">
<svg version="1.0" xmlns="http://www.w3.org/2000/svg"
 width="1760.000000pt" height="2345.000000pt" viewBox="0 0 1760.000000 2345.000000"
 preserveAspectRatio="xMidYMid meet">
<metadata>
Created by potrace 1.16, written by Peter Selinger 2001-2019
</metadata>
<g transform="translate(0.000000,2345.000000) scale(0.100000,-0.100000)"
fill="#000000" stroke="none">
<path d="M13456 6754 c-120 -157 -140 -369 -51 -544 61 -120 290 -339 503
-480 261 -174 538 -284 842 -335 134 -23 432 -31 571 -15 474 52 914 254 1242
569 l77 74 0 -2209 -1 -2209 -33 -87 c-97 -255 -254 -413 -561 -564 -221 -108
-443 -163 -696 -171 -189 -7 -319 7 -494 52 -308 79 -570 230 -800 460 -136
136 -230 263 -307 413 -34 65 -58 101 -67 100 -21 -4 -96 -118 -120 -184 -12
-31 -24 -91 -28 -133 -12 -165 36 -282 177 -434 458 -488 1114 -739 1775 -677
391 37 767 180 1080 412 243 180 387 364 454 582 l21 68 0 2566 0 2565 -44 43
c-89 85 -227 105 -341 49 -44 -21 -63 -38 -92 -83 -173 -272 -426 -497 -718
-637 -485 -233 -1039 -229 -1516 10 -325 163 -583 411 -759 732 -34 62 -66
113 -71 113 -4 0 -24 -21 -43 -46z"/>
</g>
</svg>
