<?xml version="1.0" encoding="utf-8"?>
<!-- Generator: Adobe Illustrator 18.0.0, SVG Export Plug-In . SVG Version: 6.00 Build 0)  -->
<!DOCTYPE svg PUBLIC "-//W3C//DTD SVG 1.1//EN" "http://www.w3.org/Graphics/SVG/1.1/DTD/svg11.dtd">
<svg version="1.1" id="Layer_1" xmlns="http://www.w3.org/2000/svg" xmlns:xlink="http://www.w3.org/1999/xlink" x="0px" y="0px"
	 viewBox="0 0 1100 740" enable-background="new 0 0 1100 740" xml:space="preserve">
<g>
	<line x1="694.6" y1="490.1" x2="694.6" y2="489.9"/>
	<line x1="694.6" y1="619.6" x2="694.6" y2="609.5"/>
	<polyline points="694.6,431 694.6,455.8 694.6,466.1 	"/>
	<path d="M694.6,490.1v119.3c-1.3,2.6-2.9,5-4.8,7.2c-1.7,2.1-3.7,4.1-5.8,5.8c2.7-2.9,4.7-6.4,5.8-10.3c0.6-2.2,0.9-4.5,0.9-6.8
		s-0.3-4.6-0.9-6.8V491c1-0.6,2.3-1,3.6-1C693.8,490,694.2,490.1,694.6,490.1z"/>
	<path d="M690.8,605.3c0,2.4-0.3,4.6-0.9,6.8v-13.6C690.4,600.7,690.8,602.9,690.8,605.3z"/>
	<path d="M699.3,493.3v120.5c0,1.4-0.2,2.9-0.7,4.3c-0.2,0.4-0.3,0.9-0.5,1.3c0,0,0,0.1,0,0.1c0,0,0,0,0,0h-8.2v-2.9
		c1.8-2.2,3.4-4.6,4.8-7.2V490.1c1.8,0.3,3.3,1.3,4.3,2.6C699.1,493,699.2,493.1,699.3,493.3z"/>
	<path d="M699.3,431v30.4c0,2.6-2.1,4.8-4.8,4.8c-1.3,0-2.5-0.5-3.4-1.4c-0.4-0.4-0.7-0.8-1-1.4c-0.3-0.6-0.4-1.3-0.4-2V431H699.3z"
		/>
</g>
<g>
	<polyline fill="none" points="310.2,478 310.2,427.4 310.2,98.4 	"/>
	<path d="M315,103.1v384.6c-1.8-3.1-3.4-6.4-4.8-9.8c-3.1-7.8-4.8-16.4-4.8-25.3V103.1c0-2.6,2.1-4.8,4.8-4.8l0,0
		C312.8,98.4,315,100.5,315,103.1z"/>
</g>
<g>
	<polyline fill="none" points="440.1,184.2 440.1,218.9 440.1,427.4 440.1,478 	"/>
	<path d="M444.9,178v274.7c0,8.9-1.7,17.5-4.8,25.3c-1.3,3.4-2.9,6.7-4.8,9.8V201.5c0-6.3,1.7-12.3,4.8-17.3
		C441.5,181.9,443.1,179.9,444.9,178z"/>
</g>
<g>
	<path d="M440.1,427.4c-1.3-3.4-2.9-6.7-4.8-9.8v35.1c0,33.2-27,60.2-60.2,60.2c-33.2,0-60.2-27-60.2-60.2v-35.1
		c-1.8,3.1-3.4,6.4-4.8,9.8c-3.1,7.8-4.8,16.4-4.8,25.3s1.7,17.5,4.8,25.3c1.3,3.4,2.9,6.7,4.8,9.8c12.1,20.7,34.6,34.6,60.2,34.6
		s48.1-13.9,60.2-34.6c1.8-3.1,3.4-6.4,4.8-9.8c3.1-7.8,4.8-16.4,4.8-25.3S443.2,435.2,440.1,427.4z"/>
</g>
<path d="M498.7,439.6c1.3-3,2.9-5.9,4.8-8.6V201.5c0-6.3-1.7-12.3-4.8-17.3v34.7V439.6z"/>
<path d="M498.7,218.9v-34.7c-1.3-2.3-2.9-4.3-4.8-6.2v284.2c0-8,1.7-15.6,4.8-22.5V218.9z"/>
<path d="M503.5,431c-1.8,2.7-3.4,5.6-4.8,8.6v45.1c1.3,3,2.9,5.9,4.8,8.6v-31.1V431z"/>
<path d="M494,462.2c0,8,1.7,15.6,4.8,22.5v-45.1C495.7,446.5,494,454.2,494,462.2z"/>
<g>
	<path d="M694.6,455.8v10.3c-1.3,0-2.5-0.5-3.4-1.4c-0.4-0.4-0.7-0.8-1-1.4C691.9,461,693.3,458.5,694.6,455.8z"/>
	<path d="M694.6,490.1v26.8h-4.8V491c1-0.6,2.3-1,3.6-1C693.8,490,694.2,490.1,694.6,490.1z"/>
</g>
<g>
	<path d="M699.3,434.2v27.2c0,2.6-2.1,4.8-4.8,4.8v-10.3c1.5-3.3,2.7-6.8,3.5-10.4C698.9,441.8,699.3,438.1,699.3,434.2z"/>
	<path d="M699.3,494.7v22.2h-4.8v-26.8c1.8,0.3,3.3,1.3,4.4,2.6C699.2,493.4,699.3,494,699.3,494.7z"/>
</g>
<g>
	<path d="M647.8,392.2c23.2,0,42,18.9,42,42v-29.8c-9.4-13.1-24.7-21.7-42-21.7c-17.3,0-32.7,8.6-42,21.7v29.8
		C605.8,411.1,624.6,392.2,647.8,392.2z"/>
</g>
<g>
	<path d="M689.8,489.9L689.8,489.9c-0.1-0.1,0-0.1,0-0.2V489.9z"/>
	<path d="M694.6,490.1v9.9c-0.9,1.3-1.9,2.6-3,3.7c-0.6,0.7-1.2,1.4-1.8,2c-9.3,9.8-22.5,15.9-37.1,15.9c-15.1,0-28.7-6.6-38.1-16.9
		c0,0,0,0,0,0c-0.6-0.6-1.2-1.3-1.7-2c0,0,0,0,0,0c-1.3-1.9-2-4.2-2-6.7c0-3.4,1.4-6.4,3.6-8.6c3.3,7.4,8.8,13.8,15.6,18.2
		c6.5,4.2,14.3,6.6,22.6,6.6c14,0,26.5-6.9,34-17.5l0,0c0.6-0.9,1.2-1.8,1.8-2.8c0.4-0.4,0.8-0.7,1.2-0.9c1-0.6,2.3-1,3.6-1
		C693.8,490,694.2,490.1,694.6,490.1z"/>
</g>
<g>
	<path d="M699.3,590.1v22.9c0,2.2-0.4,4.5-1.3,6.5c0,0,0,0.1,0,0.1c0,0,0,0,0,0c-1.2,2.6-2.7,5.1-4.6,7.2c-0.2,0.2-0.3,0.3-0.4,0.4
		c-1.7,1.6-3.5,3.1-5.4,4.5c-8.5,6.2-19,9.9-30.3,9.9c-15.2,0-28.8-6.6-38.3-17.1c0,0,0,0,0,0c0,0,0,0,0,0c-0.5-0.6-1.1-1.2-1.6-1.8
		c0,0,0,0,0,0c0,0-0.1-0.1-0.1-0.1c0,0,0,0,0,0c-1.3-1.9-2-4.2-2-6.7c0-3.4,1.4-6.4,3.6-8.6c0,0,0,0,0,0c3.3,7.5,8.8,13.8,15.6,18.2
		c6.6,4.3,14.4,6.7,22.8,6.7c0.4,0,0.9,0,1.3,0c3.9-0.1,7.7-0.8,11.2-1.9c5.3-1.6,10.1-4.3,14.3-7.8c2.1-1.7,4-3.7,5.8-5.8
		c1.8-2.2,3.4-4.6,4.8-7.2c1.8-3.4,3.1-7,3.9-10.8C699,595.8,699.3,593,699.3,590.1z"/>
</g>
<path d="M605.8,462.2v-27.9v-29.8c-1.8,2.6-3.4,5.3-4.8,8.2v27C604.1,446.5,605.8,454.2,605.8,462.2z"/>
<path d="M601,412.6c-2.6,5.7-4.3,12-4.7,18.6c1.8,2.7,3.4,5.5,4.7,8.5V412.6z"/>
<path d="M605.7,464C605.7,464,605.7,464,605.7,464C605.7,464,605.8,464,605.7,464l0-1.8C605.8,462.8,605.7,463.4,605.7,464z"/>
<g>
	<path d="M699.3,434.2c0,3.9-0.4,7.6-1.2,11.2c-0.8,3.6-2,7.1-3.5,10.4c-1.2,2.6-2.7,5.2-4.3,7.6c-0.3-0.6-0.4-1.3-0.4-2v-57
		c1.8,2.6,3.4,5.3,4.8,8.2c2.6,5.7,4.3,11.9,4.7,18.4C699.3,432.1,699.3,433.2,699.3,434.2z"/>
</g>
<path fill="none" d="M533,434.2c0,6.6-5.4,12-12,12c-3.3,0-6.2-1.3-8.3-3.4c3.4-7.5,9-13.7,15.9-18C531.2,427.1,533,430.4,533,434.2
	z"/>
<path fill="none" d="M587.1,442.8c-2.2,2.1-5.1,3.4-8.3,3.4c-6.6,0-12-5.4-12-12c0-3.8,1.7-7.1,4.5-9.3
	C578.2,429.1,583.7,435.4,587.1,442.8z"/>
<path d="M590.8,432.3v1.9c0,2.3-0.6,4.4-1.8,6.3c-3.8-6.9-9.4-12.7-16.1-16.7c-6.7-4.1-14.6-6.4-23.1-6.4c-8.4,0-16.3,2.3-23,6.4
	c-6.7,4.1-12.3,9.8-16.1,16.7c-1.1-1.8-1.8-4-1.8-6.3v-1.9c0.1-0.1,0.1-0.2,0.2-0.3c2.3-3.4,5-6.5,8.1-9.2
	c8.7-7.7,20.1-12.3,32.6-12.3s23.9,4.7,32.6,12.3c3.1,2.7,5.8,5.8,8.1,9.2C590.6,432.1,590.7,432.2,590.8,432.3z"/>
<path d="M589,440.5c-0.5,0.9-1.2,1.7-1.9,2.4c-3.4-7.5-9-13.7-15.9-18c-6.2-3.8-13.5-6.1-21.4-6.1s-15.2,2.2-21.4,6
	c-6.9,4.3-12.5,10.5-15.9,18c-0.7-0.7-1.4-1.5-1.9-2.4c3.8-6.9,9.4-12.7,16.1-16.7c6.7-4.1,14.6-6.4,23-6.4c8.4,0,16.3,2.3,23.1,6.4
	C579.7,427.8,585.2,433.6,589,440.5z"/>
<path d="M549.9,508.6c-25.6,0-46.4-20.8-46.4-46.4v31.1c10,14.9,27.1,24.7,46.4,24.7c19.3,0,36.3-9.8,46.4-24.7v-31.1
	C596.3,487.7,575.4,508.6,549.9,508.6z"/>
<path d="M605.7,464c-0.2,7.4-1.9,14.4-4.7,20.8v-28.9C602.3,458.7,603.9,461.4,605.7,464z"/>
<path d="M601,455.8c1.3,2.9,2.9,5.6,4.7,8.1c0-0.6,0-1.2,0-1.8c0-8-1.7-15.6-4.8-22.5V455.8z"/>
<path d="M601,455.8v28.9c-1.3,3-2.9,5.9-4.8,8.6v-59.1C596.3,441.9,598,449.3,601,455.8z"/>
<path d="M596.3,431v3.2c0-1,0-2,0.1-3.1C596.3,431.1,596.3,431.1,596.3,431z"/>
<path d="M601,439.6c-1.3-3-2.9-5.8-4.7-8.5c-0.1,1-0.1,2-0.1,3.1c0,7.7,1.7,15,4.8,21.6V439.6z"/>
<g>
	<path d="M498.7,184.2c-1.3-2.3-2.9-4.3-4.8-6.2c-6.2-6.5-14.9-10.5-24.6-10.5c-9.6,0-18.4,4-24.6,10.5c-1.8,1.9-3.4,4-4.8,6.2
		c-3,5.1-4.8,11-4.8,17.3c0,6.3,1.7,12.3,4.8,17.3c1.3,2.3,2.9,4.3,4.8,6.2v-23.6c0-13.5,11-24.6,24.6-24.6
		c13.5,0,24.6,11,24.6,24.6v23.6c1.8-1.9,3.4-4,4.8-6.2c3-5.1,4.8-11,4.8-17.3C503.5,195.2,501.8,189.3,498.7,184.2z"/>
</g>
<path d="M689.8,489.7v0.2h-0.1C689.8,489.9,689.8,489.8,689.8,489.7z"/>
</svg>
